<svg width="92" height="92" viewBox="0 0 92 92" fill="none" xmlns="http://www.w3.org/2000/svg">
<path d="M68.7628 37.4535H70.5112V53.0019H68.7628L67.389 47.944C67.2641 47.4445 67.1184 47.0906 66.9519 46.8825C66.827 46.6327 66.5564 46.487 66.1401 46.4454C65.7238 46.3621 65.0162 46.3205 64.0171 46.3205H57.5854V61.0572C57.5854 62.4725 57.6478 63.3259 57.7727 63.6173C57.8976 63.8671 58.2931 64.0336 58.9591 64.1169L63.6424 64.554V66.3024H45.284V64.554L48.7184 64.1169C49.3845 64.0336 49.7799 63.8671 49.9048 63.6173C50.0297 63.3259 50.0921 62.4725 50.0921 61.0572V29.0861C50.0921 27.6707 50.0297 26.8381 49.9048 26.5883C49.7799 26.2969 49.3845 26.1096 48.7184 26.0263L45.284 25.5892V23.8408H74.8822V34.5811H73.1338L71.1356 27.6499C71.0107 27.1503 70.865 26.7965 70.6985 26.5883C70.5736 26.3385 70.303 26.1928 69.8867 26.1512C69.4705 26.0679 68.7628 26.0263 67.7637 26.0263H57.5854V44.1349H64.0171C65.0162 44.1349 65.7238 44.1141 66.1401 44.0725C66.5564 43.9892 66.827 43.8435 66.9519 43.6354C67.1184 43.3856 67.2641 43.011 67.389 42.5114L68.7628 37.4535Z" fill="black"/>
<path d="M25.0103 64.554V66.3024H12.9587V64.554L16.3931 64.1169C16.8511 64.0336 17.1841 63.9504 17.3922 63.8671C17.6004 63.7422 17.7877 63.4716 17.9542 63.0554C18.1207 62.6391 18.3497 61.973 18.6411 61.0572L30.5678 23.8408H35.938L47.9271 61.0572C48.2185 61.973 48.4475 62.6391 48.614 63.0554C48.7805 63.4716 48.9679 63.7422 49.176 63.8671C49.4258 63.9504 49.7588 64.0336 50.1751 64.1169L53.6095 64.554V66.3024H36.3751V64.554L39.8095 64.1169C40.4755 64.0336 40.8294 63.8671 40.871 63.6173C40.9543 63.3259 40.7669 62.4725 40.309 61.0572L37.9362 53.3142H23.5117L21.0764 61.0572C20.6601 62.4725 20.4728 63.3259 20.5144 63.6173C20.556 63.8671 20.9099 64.0336 21.5759 64.1169L25.0103 64.554ZM24.261 51.1286H37.2493L30.8176 30.3974L24.261 51.1286Z" fill="black"/>
<path fill-rule="evenodd" clip-rule="evenodd" d="M45.7802 89.8064C70.0952 89.8064 89.8064 70.0952 89.8064 45.7802C89.8064 21.4652 70.0952 1.75403 45.7802 1.75403C21.4652 1.75403 1.75403 21.4652 1.75403 45.7802C1.75403 70.0952 21.4652 89.8064 45.7802 89.8064ZM45.7802 91.5605C71.064 91.5605 91.5605 71.064 91.5605 45.7802C91.5605 20.4965 71.064 0 45.7802 0C20.4965 0 0 20.4965 0 45.7802C0 71.064 20.4965 91.5605 45.7802 91.5605Z" fill="black"/>
</svg>
